# xmcd
#
# Track frame offsets:
#	150
#	15438
#	30580
#	46090
#	59859
#	72517
#	85563
#	98407
#	112965
#	126018
#	139356
#	154302
#	166864
#	178577
#	192813
#	206667
#	222916
#	237292
#	251649
#	264320
#	278827
#	293531
#	307039
#	321015
#	336720
#
# Disc length: 4688 seconds
#
# Revision: 1
# Processed by: cddbd v1.5.2PL0 Copyright (c) Steve Scherf et al.
# Submitted via: audiograbber 1.83.01
#
DISCID=6a124e19
DTITLE=Django Reinhardt - Anouman [CD 3)
DYEAR=1900
DGENRE=Swing
TTITLE0=Porto Cabello
TTITLE1=Duke and Dukie (Take 1)
TTITLE2=Duke and Dukie (Take 2)
TTITLE3=Songe d'autonomne
TTITLE4=Babik (Be Bop)
TTITLE5=Babik
TTITLE6=Del Salle (Take 1)
TTITLE7=Del Salle (Take 2)
TTITLE8=Just one of those Things
TTITLE9=Double Whisky
TTITLE10=Dream of you
TTITLE11=Impromptu
TTITLE12=Vamp
TTITLE13=Kepp cool
TTITLE14=Fleche d'or
TTITLE15=Troublant Bolero
TTITLE16=Nuits de St. Germain-des-Pres
TTITLE17=Crazy Rhythm
TTITLE18=Anouman
TTITLE19=D.R. Blues
TTITLE20=Fine and Dandy
TTITLE21=Le soir
TTITLE22=Chez moi
TTITLE23=I cover the Waterfront
TTITLE24=Deccaphonie
EXTD=
EXTT0=
EXTT1=
EXTT2=
EXTT3=
EXTT4=
EXTT5=
EXTT6=
EXTT7=
EXTT8=
EXTT9=
EXTT10=
EXTT11=
EXTT12=
EXTT13=
EXTT14=
EXTT15=
EXTT16=
EXTT17=
EXTT18=
EXTT19=
EXTT20=
EXTT21=
EXTT22=
EXTT23=
EXTT24=
PLAYORDER=
